
nColumns=19
nRows=31
DataType=double
version=3
OpenSimVersion=4.4-2022-10-11-798caa840
endheader
time	ground_force_calcn_r_vx	ground_force_calcn_r_vy	ground_force_calcn_r_vz	ground_force_calcn_r_px	ground_force_calcn_r_py	ground_force_calcn_r_pz	ground_force_calcn_r_mx	ground_force_calcn_r_my	ground_force_calcn_r_mz	ground_force_calcn_l_vx	ground_force_calcn_l_vy	ground_force_calcn_l_vz	ground_force_calcn_l_px	ground_force_calcn_l_py	ground_force_calcn_l_pz	ground_force_calcn_l_mx	ground_force_calcn_l_my	ground_force_calcn_l_mz
1.29	-124.793	211.075	2.86273	-0.121734	0	-0.427552	-0.33766	0.571121	0.00774591	0	0	0	0	0	0	0	0	0
1.3	-386.753	705.104	-26.0401	-0.134727	0	-0.430698	-2.13832	3.89845	-0.143973	-62.7244	87.66719999999999	8.315049999999999	-0.0754597	0	-0.770247	0.334075	-0.466922	-0.0442866
1.31	-350.271	1032.85	-108.362	-0.147331	0	-0.428746	-3.07574	9.0695	-0.951525	-253.362	423.07	41.4432	-0.10979	0	-0.7740629999999999	0.88796	-1.48274	-0.145247
1.32	-286.702	1448.27	-169.287	-0.174114	0	-0.428943	-1.9347	9.773110000000001	-1.14237	-209.298	659.687	76.3143	-0.135294	0	-0.771223	0.738842	-2.32875	-0.269396
1.33	-327.891	2137.92	-170.573	-0.214639	0	-0.435099	0.0506877	-0.330494	0.0263684	-30.3467	922.545	57.7639	-0.170016	0	-0.762275	-0.0608163	1.84883	0.115762
1.34	-296.731	2384.56	-89.1789	-0.233557	0	-0.441585	1.44403	-11.6044	0.433987	-121.684	1187.37	65.6658	-0.18518	0	-0.75602	-0.829589	8.095000000000001	0.447683
1.35	-413.68	1816.07	-79.2111	-0.215348	0	-0.442554	2.64698	-11.6204	0.506842	-249.117	1072.54	82.1151	-0.176082	0	-0.755092	-2.00766	8.643689999999999	0.661775
1.36	-488.967	1340.25	-100.469	-0.181653	0	-0.442135	1.68841	-4.62791	0.346922	-286.678	753.668	88.9589	-0.147042	0	-0.7568	-1.5958	4.19531	0.495192
1.37	-434.411	1209.11	-85.98820000000001	-0.166429	0	-0.44412	0.987971	-2.74986	0.195561	-271.661	571.603	91.5744	-0.123476	0	-0.756458	-0.107096	0.225342	0.0361012
1.38	-386.787	1235.23	-64.496	-0.166335	0	-0.446214	1.51269	-4.83087	0.252237	-258.024	525.5890000000001	86.20229999999999	-0.11558	0	-0.754902	0.431262	-0.878471	-0.144079
1.39	-365.867	1251.96	-43.4521	-0.166862	0	-0.448019	2.07556	-7.10236	0.246504	-239.675	534.625	70.7294	-0.115757	0	-0.7541020000000001	-0.018551	0.0413802	0.00547449
1.4	-333.213	1243.68	-35.9464	-0.168994	0	-0.449168	2.06298	-7.69982	0.22255	-214.2	553.252	57.5746	-0.118997	0	-0.753574	-0.489345	1.26392	0.13153
1.41	-291.381	1232.46	-44.4012	-0.174884	0	-0.449559	1.56961	-6.639	0.239181	-185.427	562.947	49.3662	-0.123955	0	-0.752879	-0.679897	2.06414	0.181009
1.42	-253.308	1203.66	-52.1762	-0.182156	0	-0.44975	1.13104	-5.37445	0.232972	-153.459	553.293	46.4347	-0.129578	0	-0.752239	-0.582381	2.09976	0.17622
1.43	-222.477	1141.94	-48.2074	-0.188304	0	-0.450139	0.930192	-4.77452	0.201558	-121.382	521.018	46.4025	-0.135074	0	-0.751737	-0.335285	1.43918	0.128175
1.44	-195.56	1065.14	-40.0358	-0.193888	0	-0.450489	0.815488	-4.44167	0.16695	-93.9837	468.32	42.4291	-0.139375	0	-0.751173	-0.146825	0.731629	0.0662845
1.45	-167.112	994.85	-37.7439	-0.200136	0	-0.450423	0.659699	-3.92733	0.149	-73.2252	405.97	34.9923	-0.141783	0	-0.750599	-0.0366178	0.203014	0.0174987
1.46	-138.026	936.37	-41.2173	-0.206877	0	-0.450109	0.497631	-3.37594	0.148603	-61.5824	350.202	29.7901	-0.143522	0	-0.750455	0.030293	-0.172267	-0.0146541
1.47	-114.403	887.04	-45.3257	-0.212454	0	-0.449752	0.412811	-3.2008	0.163553	-55.5814	310.416	29.5533	-0.146896	0	-0.751166	0.09035840000000001	-0.504641	-0.0480446
1.48	-100.691	839.073	-45.2341	-0.214917	0	-0.449462	0.420307	-3.50248	0.188818	-48.3505	285.359	32.6671	-0.153455	0	-0.752403	0.126185	-0.7447279999999999	-0.0852546
1.49	-95.13590000000001	785.604	-41.0926	-0.214563	0	-0.449138	0.495605	-4.09257	0.21407	-37.2508	273.266	36.5546	-0.164612	0	-0.7529670000000001	0.11305	-0.829317	-0.110937
1.5	-90.69199999999999	729.903	-36.7557	-0.213297	0	-0.448655	0.577292	-4.64614	0.233965	-23.743	271.23	38.5378	-0.179724	0	-0.752488	0.054912	-0.62729	-0.0891289
1.51	-85.0042	677.3869999999999	-33.6659	-0.212347	0	-0.44796	0.62847	-5.00819	0.248906	-10.4477	272.106	37.2125	-0.195268	0	-0.751084	0.00378284	-0.0985221	-0.0134736
1.52	-78.9742	626.6	-30.7795	-0.212025	0	-0.447341	0.653163	-5.18235	0.254565	0.430202	268.383	33.1754	-0.208193	0	-0.749108	0.000924595	0.576812	0.071301
1.53	-72.0338	575.207	-27.2684	-0.212439	0	-0.446898	0.653124	-5.21535	0.24724	7.33198	256.929	27.6761	-0.217423	0	-0.747387	0.0343568	1.20394	0.129687
1.54	-62.563	525.0119999999999	-23.4024	-0.214018	0	-0.446484	0.6123189999999999	-5.13842	0.229045	10.9568	240.024	23.2034	-0.223293	0	-0.74654	0.0674226	1.47699	0.142783
1.55	-50.3422	477.989	-20.2859	-0.217075	0	-0.446069	0.52047	-4.94176	0.209729	13.8133	221.639	21.8103	-0.226739	0	-0.74693	0.08446480000000001	1.35526	0.133364
1.56	-36.4326	436.834	-18.0414	-0.22167	0	-0.445759	0.389642	-4.67188	0.19295	17.248	206.214	22.9124	-0.228308	0	-0.748129	0.0839606	1.00382	0.111534
1.57	-22.2156	405.806	-16.4761	-0.227351	0	-0.44551	0.240833	-4.39924	0.178613	21.059	197.907	24.912	-0.228669	0	-0.749507	0.0496551	0.466647	0.0587403
1.58	-10.3452	384.931	-15.3392	-0.2334	0	-0.44529	0.114059	-4.24397	0.169118	25.0724	197.543	26.4576	-0.229158	0	-0.750851	-0.00505219	-0.0398057	-0.00533132
1.59	-1.60219	372.875	-14.3969	-0.239149	0	-0.445299	0.0182441	-4.24591	0.163936	29.4702	203.231	26.0097	-0.230763	0	-0.750789	-0.051678	-0.356379	-0.0456098
